<svg width="10" height="6" viewBox="0 0 10 6" version="1.1" xmlns="http://www.w3.org/2000/svg" xmlns:xlink="http://www.w3.org/1999/xlink">
<title>Shape</title>
<desc>Created using Figma</desc>
<g id="Canvas" transform="translate(-1049 -2735)">
<g id="Shape">
<use xlink:href="#path0_stroke" transform="matrix(6.12323e-17 1 1 -6.12323e-17 1050 2736)" fill="#3A4047"/>
</g>
</g>
<defs>
<path id="path0_stroke" d="M -0.707107 7.29289C -1.09763 7.68342 -1.09763 8.31658 -0.707107 8.70711C -0.316583 9.09763 0.316583 9.09763 0.707107 8.70711L -0.707107 7.29289ZM 4 4L 4.70711 4.70711C 5.09763 4.31658 5.09763 3.68342 4.70711 3.29289L 4 4ZM 0.707107 -0.707107C 0.316583 -1.09763 -0.316583 -1.09763 -0.707107 -0.707107C -1.09763 -0.316583 -1.09763 0.316583 -0.707107 0.707107L 0.707107 -0.707107ZM 0.707107 8.70711L 4.70711 4.70711L 3.29289 3.29289L -0.707107 7.29289L 0.707107 8.70711ZM 4.70711 3.29289L 0.707107 -0.707107L -0.707107 0.707107L 3.29289 4.70711L 4.70711 3.29289Z"/>
</defs>
</svg>
