<svg width="136" height="136" viewBox="0 0 136 136" version="1.1" xmlns="http://www.w3.org/2000/svg" xmlns:xlink="http://www.w3.org/1999/xlink">
<title>&#208;&#159;&#208;&#181;&#209;&#128;&#208;&#181;&#208;&#183;&#208;&#178;&#208;&#190;&#208;&#189;&#208;&#184;&#209;&#130;&#208;&#181; &#208;&#188;&#208;&#189;&#208;&#181;</title>
<desc>Created using Figma</desc>
<g id="Canvas" transform="translate(-1463 1046)">
<g id="&#208;&#159;&#208;&#181;&#209;&#128;&#208;&#181;&#208;&#183;&#208;&#178;&#208;&#190;&#208;&#189;&#208;&#184;&#209;&#130;&#208;&#181; &#208;&#188;&#208;&#189;&#208;&#181;">
<g id="Ellipse" filter="url(#filter0_d)">
<use xlink:href="#path0_fill" transform="translate(1477 -1036)" fill="#1AB0CE"/>
</g>
<g id="Regular text">
<g id="&#208;&#159;&#208;&#181;&#209;&#128;&#208;&#181;&#208;&#183;&#208;&#178;&#208;&#190;&#208;&#189;&#208;&#184;&#209;&#130;&#208;&#181; &#208;&#188;&#208;&#189;&#208;&#181; &#209;&#129;&#208;&#181;&#208;&#185;&#209;&#135;&#208;&#176;&#209;&#129;!">
<use xlink:href="#path1_fill" transform="translate(1479 -990)" fill="#FFFFFF"/>
</g>
</g>
<g id="phone">
<g id="Page 1">
<g id="feather icon">
<g id="phone">
<g id="Shape">
<use xlink:href="#path2_stroke" transform="translate(1519 -1014)" fill="#FFFFFF"/>
</g>
</g>
</g>
</g>
</g>
</g>
</g>
<defs>
<filter id="filter0_d" filterUnits="userSpaceOnUse" x="1463" y="-1046" width="136" height="136" color-interpolation-filters="sRGB">
<feFlood flood-opacity="0" result="BackgroundImageFix"/>
<feColorMatrix in="SourceAlpha" type="matrix" values="0 0 0 0 0 0 0 0 0 0 0 0 0 0 0 0 0 0 255 0"/>
<feOffset dx="0" dy="4"/>
<feGaussianBlur stdDeviation="7"/>
<feColorMatrix type="matrix" values="0 0 0 0 0 0 0 0 0 0 0 0 0 0 0 0 0 0 0.05 0"/>
<feBlend mode="normal" in2="BackgroundImageFix" result="effect1_dropShadow"/>
<feBlend mode="normal" in="SourceGraphic" in2="effect1_dropShadow" result="shape"/>
</filter>
<path id="path0_fill" d="M 108 54C 108 83.8234 83.8234 108 54 108C 24.1766 108 0 83.8234 0 54C 0 24.1766 24.1766 0 54 0C 83.8234 0 108 24.1766 108 54Z"/>
<path id="path1_fill" d="M 9.26855 15L 9.26855 5.53906L 16.9111 5.53906L 16.9111 15L 14.9355 15L 14.9355 7.18652L 11.2373 7.18652L 11.2373 15L 9.26855 15ZM 20.3838 11.876C 20.4157 12.514 20.5706 12.972 20.8486 13.25C 21.1266 13.528 21.5641 13.667 22.1611 13.667C 22.5075 13.667 22.8105 13.6237 23.0703 13.5371C 23.3346 13.4505 23.5648 13.2842 23.7607 13.0381L 25.0732 13.9746C 24.7861 14.3893 24.4124 14.6992 23.9521 14.9043C 23.4964 15.1094 22.8721 15.2119 22.0791 15.2119C 20.8988 15.2119 20.0169 14.902 19.4336 14.2822C 18.8548 13.6624 18.5654 12.7259 18.5654 11.4727C 18.5654 8.9069 19.7139 7.62402 22.0107 7.62402C 23.0316 7.62402 23.8086 7.91341 24.3418 8.49219C 24.8796 9.06641 25.1484 9.90495 25.1484 11.0078L 25.1484 11.876L 20.3838 11.876ZM 23.3984 10.6592C 23.3984 9.56999 22.9222 9.02539 21.9697 9.02539C 21.6553 9.02539 21.3978 9.08008 21.1973 9.18945C 20.9967 9.29427 20.835 9.45378 20.7119 9.66797C 20.5934 9.8776 20.5 10.208 20.4316 10.6592L 23.3984 10.6592ZM 33.4404 11.3633C 33.4404 12.1335 33.3242 12.8125 33.0918 13.4004C 32.8594 13.9883 32.5267 14.4372 32.0938 14.7471C 31.6608 15.057 31.1436 15.2119 30.542 15.2119C 29.749 15.2119 29.0723 14.9635 28.5117 14.4668L 28.5117 17.7002L 26.748 17.7002L 26.748 7.8291L 28.375 7.8291L 28.375 8.5332C 28.7031 8.25065 29.0472 8.02962 29.4072 7.87012C 29.7718 7.70605 30.1888 7.62402 30.6582 7.62402C 31.5651 7.62402 32.2555 7.94303 32.7295 8.58105C 33.2035 9.21908 33.4404 10.1465 33.4404 11.3633ZM 31.6221 11.3906C 31.6221 10.6934 31.5013 10.151 31.2598 9.76367C 31.0182 9.37174 30.6582 9.17578 30.1797 9.17578C 29.8926 9.17578 29.5964 9.24414 29.291 9.38086C 28.9902 9.51302 28.7305 9.67708 28.5117 9.87305L 28.5117 13.0107C 28.6986 13.1794 28.9287 13.3298 29.2021 13.4619C 29.4801 13.5895 29.765 13.6533 30.0566 13.6533C 30.5397 13.6533 30.9202 13.4482 31.1982 13.0381C 31.4808 12.6234 31.6221 12.0742 31.6221 11.3906ZM 36.5303 11.876C 36.5622 12.514 36.7171 12.972 36.9951 13.25C 37.2731 13.528 37.7106 13.667 38.3076 13.667C 38.654 13.667 38.957 13.6237 39.2168 13.5371C 39.4811 13.4505 39.7113 13.2842 39.9072 13.0381L 41.2197 13.9746C 40.9326 14.3893 40.5589 14.6992 40.0986 14.9043C 39.6429 15.1094 39.0186 15.2119 38.2256 15.2119C 37.0452 15.2119 36.1634 14.902 35.5801 14.2822C 35.0013 13.6624 34.7119 12.7259 34.7119 11.4727C 34.7119 8.9069 35.8604 7.62402 38.1572 7.62402C 39.1781 7.62402 39.9551 7.91341 40.4883 8.49219C 41.026 9.06641 41.2949 9.90495 41.2949 11.0078L 41.2949 11.876L 36.5303 11.876ZM 39.5449 10.6592C 39.5449 9.56999 39.0687 9.02539 38.1162 9.02539C 37.8018 9.02539 37.5443 9.08008 37.3438 9.18945C 37.1432 9.29427 36.9814 9.45378 36.8584 9.66797C 36.7399 9.8776 36.6465 10.208 36.5781 10.6592L 39.5449 10.6592ZM 43.5166 10.7139L 45.041 10.7139C 45.4785 10.7139 45.793 10.6683 45.9844 10.5771C 46.1758 10.4814 46.2715 10.2718 46.2715 9.94824C 46.2715 9.62012 46.1689 9.39225 45.9639 9.26465C 45.7588 9.13249 45.4603 9.06641 45.0684 9.06641C 44.6947 9.06641 44.3916 9.12565 44.1592 9.24414C 43.9268 9.35807 43.7308 9.52214 43.5713 9.73633L 42.3203 8.85449C 42.5755 8.43522 42.9424 8.12533 43.4209 7.9248C 43.904 7.72428 44.4531 7.62402 45.0684 7.62402C 46.112 7.62402 46.8753 7.83594 47.3584 8.25977C 47.846 8.68359 48.0898 9.24186 48.0898 9.93457C 48.0898 10.2581 48.0101 10.5498 47.8506 10.8096C 47.6956 11.0648 47.4587 11.263 47.1396 11.4043C 47.4541 11.5182 47.7139 11.7256 47.9189 12.0264C 48.1286 12.3271 48.2334 12.6416 48.2334 12.9697C 48.2334 13.6898 47.9645 14.2435 47.4268 14.6309C 46.889 15.0182 46.0801 15.2119 45 15.2119C 43.6966 15.2119 42.7715 14.7995 42.2246 13.9746L 43.5576 13.0381C 43.7627 13.3024 43.9792 13.4893 44.207 13.5986C 44.4349 13.7035 44.6992 13.7559 45 13.7559C 45.4102 13.7559 45.7474 13.6829 46.0117 13.5371C 46.276 13.3913 46.4082 13.1794 46.4082 12.9014C 46.4082 12.5824 46.3171 12.3499 46.1348 12.2041C 45.957 12.0537 45.6152 11.9785 45.1094 11.9785L 43.5166 11.9785L 43.5166 10.7139ZM 56.0469 12.8604C 56.0469 13.5394 55.7826 14.0658 55.2539 14.4395C 54.7253 14.8132 53.9163 15 52.8271 15L 49.6895 15L 49.6895 7.8291L 52.6016 7.8291C 53.6452 7.8291 54.3971 7.96126 54.8574 8.22559C 55.3223 8.48535 55.5547 8.92285 55.5547 9.53809C 55.5547 9.94824 55.4362 10.2809 55.1992 10.5361C 54.9622 10.7868 54.6888 10.9782 54.3789 11.1104C 54.8665 11.2106 55.2653 11.3997 55.5752 11.6777C 55.8896 11.9512 56.0469 12.3454 56.0469 12.8604ZM 53.791 9.81836C 53.791 9.53125 53.6748 9.33757 53.4424 9.2373C 53.21 9.13249 52.8636 9.08008 52.4033 9.08008L 51.4395 9.08008L 51.4395 10.6182L 52.4785 10.6182C 52.9707 10.6182 53.3125 10.5566 53.5039 10.4336C 53.6953 10.306 53.791 10.1009 53.791 9.81836ZM 54.2285 12.7715C 54.2285 12.4206 54.1009 12.1813 53.8457 12.0537C 53.5951 11.9261 53.2077 11.8623 52.6836 11.8623L 51.4395 11.8623L 51.4395 13.7422L 52.4648 13.7422C 52.9935 13.7422 53.4196 13.6784 53.7432 13.5508C 54.0667 13.4232 54.2285 13.1634 54.2285 12.7715ZM 64.1201 11.4316C 64.1201 12.6257 63.8444 13.5553 63.293 14.2207C 62.7415 14.8815 61.8734 15.2119 60.6885 15.2119C 58.3916 15.2119 57.2432 13.9518 57.2432 11.4316C 57.2432 10.2194 57.5189 9.28288 58.0703 8.62207C 58.6217 7.95671 59.4945 7.62402 60.6885 7.62402C 61.8734 7.62402 62.7415 7.95671 63.293 8.62207C 63.8444 9.28288 64.1201 10.2194 64.1201 11.4316ZM 62.2949 11.4316C 62.2949 10.6432 62.1719 10.069 61.9258 9.70898C 61.6797 9.3444 61.2673 9.16211 60.6885 9.16211C 60.1143 9.16211 59.6995 9.34896 59.4443 9.72266C 59.1891 10.0918 59.0615 10.6615 59.0615 11.4316C 59.0615 12.1973 59.1868 12.7624 59.4375 13.127C 59.6927 13.487 60.1097 13.667 60.6885 13.667C 61.2581 13.667 61.6683 13.4893 61.9189 13.1338C 62.1696 12.7738 62.2949 12.2064 62.2949 11.4316ZM 72.0703 15L 70.3066 15L 70.3066 11.9785L 67.4082 11.9785L 67.4082 15L 65.6445 15L 65.6445 7.8291L 67.4082 7.8291L 67.4082 10.6592L 70.3066 10.6592L 70.3066 7.8291L 72.0703 7.8291L 72.0703 15ZM 75.5293 15L 73.8613 15L 73.8613 7.8291L 75.4609 7.8291L 75.4609 12.6758L 78.7764 7.8291L 80.458 7.8291L 80.458 15L 78.8584 15L 78.8584 10.167L 75.5293 15ZM 88.0391 9.10742L 85.6055 9.10742L 85.6055 15L 83.8555 15L 83.8555 9.10742L 81.4014 9.10742L 81.4014 7.8291L 88.0391 7.8291L 88.0391 9.10742ZM 90.3838 11.876C 90.4157 12.514 90.5706 12.972 90.8486 13.25C 91.1266 13.528 91.5641 13.667 92.1611 13.667C 92.5075 13.667 92.8105 13.6237 93.0703 13.5371C 93.3346 13.4505 93.5648 13.2842 93.7607 13.0381L 95.0732 13.9746C 94.7861 14.3893 94.4124 14.6992 93.9521 14.9043C 93.4964 15.1094 92.8721 15.2119 92.0791 15.2119C 90.8988 15.2119 90.0169 14.902 89.4336 14.2822C 88.8548 13.6624 88.5654 12.7259 88.5654 11.4727C 88.5654 8.9069 89.7139 7.62402 92.0107 7.62402C 93.0316 7.62402 93.8086 7.91341 94.3418 8.49219C 94.8796 9.06641 95.1484 9.90495 95.1484 11.0078L 95.1484 11.876L 90.3838 11.876ZM 93.3984 10.6592C 93.3984 9.56999 92.9222 9.02539 91.9697 9.02539C 91.6553 9.02539 91.3978 9.08008 91.1973 9.18945C 90.9967 9.29427 90.835 9.45378 90.7119 9.66797C 90.5934 9.8776 90.5 10.208 90.4316 10.6592L 93.3984 10.6592ZM 21.0127 34L 19.4541 34L 19.4541 28.8867L 17.6631 32.209L 16.6992 32.209L 14.833 28.8867L 14.833 34L 13.2812 34L 13.2812 26.8291L 15.2432 26.8291L 17.2188 30.2334L 19.0918 26.8291L 21.0127 26.8291L 21.0127 34ZM 29.2363 34L 27.4727 34L 27.4727 30.9785L 24.5742 30.9785L 24.5742 34L 22.8105 34L 22.8105 26.8291L 24.5742 26.8291L 24.5742 29.6592L 27.4727 29.6592L 27.4727 26.8291L 29.2363 26.8291L 29.2363 34ZM 32.5791 30.876C 32.611 31.514 32.766 31.972 33.0439 32.25C 33.3219 32.528 33.7594 32.667 34.3564 32.667C 34.7028 32.667 35.0059 32.6237 35.2656 32.5371C 35.5299 32.4505 35.7601 32.2842 35.9561 32.0381L 37.2686 32.9746C 36.9814 33.3893 36.6077 33.6992 36.1475 33.9043C 35.6917 34.1094 35.0674 34.2119 34.2744 34.2119C 33.0941 34.2119 32.2122 33.902 31.6289 33.2822C 31.0501 32.6624 30.7607 31.7259 30.7607 30.4727C 30.7607 27.9069 31.9092 26.624 34.2061 26.624C 35.2269 26.624 36.0039 26.9134 36.5371 27.4922C 37.0749 28.0664 37.3438 28.9049 37.3438 30.0078L 37.3438 30.876L 32.5791 30.876ZM 35.5938 29.6592C 35.5938 28.57 35.1175 28.0254 34.165 28.0254C 33.8506 28.0254 33.5931 28.0801 33.3926 28.1895C 33.1921 28.2943 33.0303 28.4538 32.9072 28.668C 32.7887 28.8776 32.6953 29.208 32.627 29.6592L 35.5938 29.6592ZM 48.2334 32.9746C 47.96 33.3802 47.5999 33.6878 47.1533 33.8975C 46.7067 34.1071 46.1416 34.2119 45.458 34.2119C 44.3005 34.2119 43.4255 33.8975 42.833 33.2686C 42.2406 32.6351 41.9443 31.6986 41.9443 30.459C 41.9443 29.2513 42.2314 28.3102 42.8057 27.6357C 43.3799 26.9613 44.2412 26.624 45.3896 26.624C 46.0049 26.624 46.5518 26.7243 47.0303 26.9248C 47.5133 27.1253 47.8802 27.4352 48.1309 27.8545L 46.8184 28.791C 46.6589 28.5768 46.472 28.4196 46.2578 28.3193C 46.0436 28.2145 45.7679 28.1621 45.4307 28.1621C 44.8291 28.1621 44.4007 28.3467 44.1455 28.7158C 43.8903 29.085 43.7627 29.6569 43.7627 30.4316C 43.7627 31.2064 43.8926 31.7738 44.1523 32.1338C 44.4167 32.4893 44.8656 32.667 45.499 32.667C 45.7725 32.667 46.0231 32.6283 46.251 32.5508C 46.4788 32.4733 46.6953 32.3024 46.9004 32.0381L 48.2334 32.9746ZM 51.0088 30.876C 51.0407 31.514 51.1956 31.972 51.4736 32.25C 51.7516 32.528 52.1891 32.667 52.7861 32.667C 53.1325 32.667 53.4355 32.6237 53.6953 32.5371C 53.9596 32.4505 54.1898 32.2842 54.3857 32.0381L 55.6982 32.9746C 55.4111 33.3893 55.0374 33.6992 54.5771 33.9043C 54.1214 34.1094 53.4971 34.2119 52.7041 34.2119C 51.5238 34.2119 50.6419 33.902 50.0586 33.2822C 49.4798 32.6624 49.1904 31.7259 49.1904 30.4727C 49.1904 27.9069 50.3389 26.624 52.6357 26.624C 53.6566 26.624 54.4336 26.9134 54.9668 27.4922C 55.5046 28.0664 55.7734 28.9049 55.7734 30.0078L 55.7734 30.876L 51.0088 30.876ZM 54.0234 29.6592C 54.0234 28.57 53.5472 28.0254 52.5947 28.0254C 52.2803 28.0254 52.0228 28.0801 51.8223 28.1895C 51.6217 28.2943 51.46 28.4538 51.3369 28.668C 51.2184 28.8776 51.125 29.208 51.0566 29.6592L 54.0234 29.6592ZM 58.9453 34L 57.2773 34L 57.2773 26.8291L 58.877 26.8291L 58.877 31.6758L 62.1924 26.8291L 63.874 26.8291L 63.874 34L 62.2744 34L 62.2744 29.167L 58.9453 34ZM 63.0605 23.9785C 63.0605 24.3294 62.9557 24.6507 62.7461 24.9424C 62.541 25.2295 62.2493 25.4574 61.8711 25.626C 61.4974 25.7946 61.0667 25.8789 60.5791 25.8789C 60.1097 25.8789 59.6882 25.7969 59.3145 25.6328C 58.9408 25.4688 58.6491 25.2386 58.4395 24.9424C 58.2344 24.6462 58.1318 24.3249 58.1318 23.9785L 59.6426 23.9785C 59.6426 24.6576 59.9593 24.9971 60.5928 24.9971C 60.8571 24.9971 61.0827 24.9242 61.2695 24.7783C 61.4564 24.6279 61.5498 24.3613 61.5498 23.9785L 63.0605 23.9785ZM 65.3232 26.8291L 67.0732 26.8291L 67.0732 28.75C 67.0732 29.1784 67.1051 29.4928 67.1689 29.6934C 67.2327 29.8939 67.3376 30.0374 67.4834 30.124C 67.6338 30.2061 67.8844 30.2471 68.2354 30.2471C 68.7048 30.2471 69.2699 30.2015 69.9307 30.1104L 69.9307 26.8291L 71.6807 26.8291L 71.6807 34L 69.9307 34L 69.9307 31.3135C 69.5934 31.3682 69.2471 31.4229 68.8916 31.4775C 68.5407 31.5277 68.224 31.5527 67.9414 31.5527C 66.9753 31.5527 66.2962 31.3727 65.9043 31.0127C 65.5169 30.6527 65.3232 30.0283 65.3232 29.1396L 65.3232 26.8291ZM 77.8057 34L 77.8057 33.2549C 77.1084 33.8929 76.361 34.2119 75.5635 34.2119C 74.7705 34.2119 74.1712 34.0046 73.7656 33.5898C 73.36 33.1706 73.1572 32.6351 73.1572 31.9834C 73.1572 31.473 73.2598 31.0514 73.4648 30.7188C 73.6745 30.3861 73.9821 30.1263 74.3877 29.9395C 74.7979 29.748 75.3857 29.6136 76.1514 29.5361L 77.6621 29.3926L 77.6621 29.0713C 77.6621 28.6702 77.5413 28.3968 77.2998 28.251C 77.0583 28.1006 76.7051 28.0254 76.2402 28.0254C 75.8574 28.0254 75.527 28.0892 75.249 28.2168C 74.9756 28.3444 74.7728 28.5267 74.6406 28.7637L 73.2666 27.8818C 73.5081 27.4762 73.8864 27.1663 74.4014 26.9521C 74.9163 26.7334 75.5384 26.624 76.2676 26.624C 77.3841 26.624 78.1885 26.82 78.6807 27.2119C 79.1774 27.5993 79.4258 28.2373 79.4258 29.126L 79.4258 34L 77.8057 34ZM 77.6621 30.6709L 76.7666 30.7529C 76.1331 30.8076 75.6751 30.9284 75.3926 31.1152C 75.1146 31.3021 74.9756 31.5824 74.9756 31.9561C 74.9756 32.2842 75.0667 32.5098 75.249 32.6328C 75.4313 32.7513 75.6729 32.8105 75.9736 32.8105C 76.1878 32.8105 76.4476 32.7445 76.7529 32.6123C 77.0628 32.4756 77.3659 32.2842 77.6621 32.0381L 77.6621 30.6709ZM 87.2939 32.9746C 87.0205 33.3802 86.6605 33.6878 86.2139 33.8975C 85.7673 34.1071 85.2021 34.2119 84.5186 34.2119C 83.361 34.2119 82.486 33.8975 81.8936 33.2686C 81.3011 32.6351 81.0049 31.6986 81.0049 30.459C 81.0049 29.2513 81.292 28.3102 81.8662 27.6357C 82.4404 26.9613 83.3018 26.624 84.4502 26.624C 85.0654 26.624 85.6123 26.7243 86.0908 26.9248C 86.5739 27.1253 86.9408 27.4352 87.1914 27.8545L 85.8789 28.791C 85.7194 28.5768 85.5326 28.4196 85.3184 28.3193C 85.1042 28.2145 84.8285 28.1621 84.4912 28.1621C 83.8896 28.1621 83.4613 28.3467 83.2061 28.7158C 82.9508 29.085 82.8232 29.6569 82.8232 30.4316C 82.8232 31.2064 82.9531 31.7738 83.2129 32.1338C 83.4772 32.4893 83.9261 32.667 84.5596 32.667C 84.833 32.667 85.0837 32.6283 85.3115 32.5508C 85.5394 32.4733 85.7559 32.3024 85.9609 32.0381L 87.2939 32.9746ZM 90.3633 30.9922L 88.8936 30.9922L 88.6611 24.5391L 90.5752 24.5391L 90.3633 30.9922ZM 90.7324 33.0498C 90.7324 33.4417 90.6436 33.7152 90.4658 33.8701C 90.2881 34.0205 90.0033 34.0957 89.6113 34.0957C 89.1829 34.0957 88.8913 34.0114 88.7363 33.8428C 88.5814 33.6696 88.5039 33.4053 88.5039 33.0498C 88.5039 32.6761 88.5859 32.4072 88.75 32.2432C 88.9141 32.0791 89.2012 31.9971 89.6113 31.9971C 90.0306 31.9971 90.3223 32.0768 90.4863 32.2363C 90.6504 32.3958 90.7324 32.667 90.7324 33.0498Z"/>
<path id="path2_stroke" d="M 22.9993 17.2199L 21.9996 17.1951C 21.9994 17.2033 21.9993 17.2116 21.9993 17.2199L 22.9993 17.2199ZM 22.9993 20.6823L 21.9993 20.6823L 21.9993 20.6864L 22.9993 20.6823ZM 20.4783 22.9906L 20.3704 23.9848C 20.3764 23.9854 20.3824 23.986 20.3884 23.9866L 20.4783 22.9906ZM 10.4982 19.4474L 11.0416 18.6079L 11.0338 18.6029L 10.4982 19.4474ZM 3.55964 12.5226L 4.40321 11.9855L 4.39843 11.9781L 3.55964 12.5226ZM 0.00939462 2.51614L -0.986531 2.60632C -0.986059 2.61153 -0.985546 2.61674 -0.984992 2.62195L 0.00939462 2.51614ZM 0.604687 0.752177L 1.34258 1.42709L 0.604687 0.752177ZM 2.3107 0.000113474L 2.3107 -0.999887L 2.30976 -0.999886L 2.3107 0.000113474ZM 5.77999 0.000113474L 5.77999 1.00016L 5.78982 1.00007L 5.77999 0.000113474ZM 8.09286 1.98524L 9.08428 1.85422L 9.08298 1.84501L 8.09286 1.98524ZM 8.90236 5.22838L 7.96569 5.57859L 7.96654 5.58085L 8.90236 5.22838ZM 8.38197 7.66362L 9.08838 8.37143L 9.09232 8.36746L 8.38197 7.66362ZM 6.9133 9.12938L 6.20689 8.42157C 5.88778 8.74005 5.82124 9.23268 6.04443 9.62441L 6.9133 9.12938ZM 13.8519 16.0542L 13.3583 16.9239C 13.7493 17.1458 14.2402 17.0795 14.5583 16.762L 13.8519 16.0542ZM 15.3206 14.5885L 14.6181 13.8767L 14.6142 13.8807L 15.3206 14.5885ZM 17.7606 14.0691L 17.4094 15.0054L 17.4116 15.0062L 17.7606 14.0691ZM 21.0102 14.877L 21.1496 13.8867L 21.1407 13.8856L 21.0102 14.877ZM 21.9993 17.2199L 21.9993 20.6823L 23.9993 20.6823L 23.9993 17.2199L 21.9993 17.2199ZM 21.9993 20.6864C 22.0008 21.0541 21.8469 21.4058 21.5747 21.6551L 22.9253 23.1302C 23.6129 22.5006 24.0031 21.6105 23.9993 20.6783L 21.9993 20.6864ZM 21.5747 21.6551C 21.3024 21.9044 20.9369 22.0279 20.5681 21.9947L 20.3884 23.9866C 21.3168 24.0703 22.2378 23.7596 22.9253 23.1302L 21.5747 21.6551ZM 20.5861 21.9965C 17.1424 21.6298 13.9435 20.4941 11.0416 18.6079L 9.9549 20.2869C 13.0595 22.2882 16.697 23.5796 20.3704 23.9848L 20.5861 21.9965ZM 11.0338 18.6029C 8.32883 16.8946 6.11481 14.685 4.40317 11.9855L 2.71611 13.0596C 4.5555 15.9374 7.07936 18.4562 9.96268 20.2919L 11.0338 18.6029ZM 4.39843 11.9781C 2.50203 9.06917 1.36412 5.86197 1.00378 2.41034L -0.984992 2.62195C -0.586148 6.30521 0.70846 9.9541 2.72086 13.067L 4.39843 11.9781ZM 1.00532 2.42597C 0.972265 2.0609 1.09441 1.69842 1.34258 1.42709L -0.133206 0.0772587C -0.760442 0.76302 -1.07034 1.68076 -0.986531 2.60632L 1.00532 2.42597ZM 1.34258 1.42709C 1.59083 1.15568 1.94242 1.00046 2.31164 1.00011L 2.30976 -0.999886C 1.38051 -0.999013 0.49395 -0.608416 -0.133206 0.0772587L 1.34258 1.42709ZM 2.3107 1.00011L 5.77999 1.00011L 5.77999 -0.999887L 2.3107 -0.999887L 2.3107 1.00011ZM 5.78982 1.00007C 6.45041 0.993576 7.01084 1.47659 7.10274 2.12546L 9.08298 1.84501C 8.84992 0.199377 7.43138 -1.01616 5.77017 -0.999838L 5.78982 1.00007ZM 7.10148 2.11625C 7.25691 3.28018 7.55587 4.47792 7.96569 5.57859L 9.83903 4.87816C 9.46583 3.88459 9.22167 2.9064 9.08424 1.85423L 7.10148 2.11625ZM 7.96654 5.58085C 8.14631 6.05813 8.03157 6.59648 7.67161 6.95977L 9.09232 8.36746C 10.0022 7.4492 10.2938 6.08569 9.83819 4.8759L 7.96654 5.58085ZM 7.67556 6.95581L 6.20689 8.42157L 7.6197 9.83718L 9.08837 8.37142L 7.67556 6.95581ZM 6.04443 9.62441C 7.76475 12.6257 10.3513 15.2072 13.3583 16.9239L 14.3454 15.1845C 11.5621 13.6153 9.35434 11.4119 7.78217 8.63434L 6.04443 9.62441ZM 14.5583 16.762L 16.027 15.2963L 14.6142 13.8807L 13.1455 15.3464L 14.5583 16.762ZM 16.023 15.3002C 16.3873 14.9407 16.9288 14.8251 17.4094 15.0054L 18.1119 13.1328C 16.9021 12.6789 15.5379 12.969 14.6181 13.8767L 16.023 15.3002ZM 17.4116 15.0062C 18.5142 15.4151 19.7138 15.7134 20.8797 15.8685L 21.1407 13.8856C 20.0861 13.7483 19.1054 13.5045 18.1096 13.132L 17.4116 15.0062ZM 20.8708 15.8672C 21.5323 15.9604 22.0161 16.5326 21.9996 17.1951L 23.999 17.2448C 24.0408 15.5638 22.8139 14.1211 21.1496 13.8868L 20.8708 15.8672Z"/>
</defs>
</svg>
