<svg width="30" height="30" viewBox="0 0 30 30" version="1.1" xmlns="http://www.w3.org/2000/svg" xmlns:xlink="http://www.w3.org/1999/xlink">
<title>Group</title>
<desc>Created using Figma</desc>
<g id="Canvas" transform="translate(-1036 498)">
<g id="Group">
<g id="Ellipse">
<use xlink:href="#path0_fill" transform="translate(1036 -498)" fill="#1AB0CE"/>
</g>
<g id="Regular text">
<g id="3">
<use xlink:href="#path1_fill" transform="translate(1043 -493)" fill="#FFFFFF"/>
</g>
</g>
</g>
</g>
<defs>
<path id="path0_fill" d="M 30 15C 30 23.2843 23.2843 30 15 30C 6.71573 30 0 23.2843 0 15C 0 6.71573 6.71573 0 15 0C 23.2843 0 30 6.71573 30 15Z"/>
<path id="path1_fill" d="M 11.5967 12.3408C 11.5967 13.3115 11.2777 14.0316 10.6396 14.501C 10.0062 14.9658 9.13346 15.1982 8.02148 15.1982C 7.22852 15.1982 6.55632 15.0547 6.00488 14.7676C 5.45801 14.4759 5.06836 14.109 4.83594 13.667L 6.3877 12.6074C 6.55632 12.8672 6.76595 13.0768 7.0166 13.2363C 7.26725 13.3958 7.60905 13.4756 8.04199 13.4756C 8.58887 13.4756 8.98535 13.3708 9.23145 13.1611C 9.4821 12.9515 9.60742 12.6302 9.60742 12.1973C 9.60742 11.3223 9.02865 10.8848 7.87109 10.8848L 7.03027 10.8848L 7.03027 9.23047L 7.76172 9.23047C 8.34049 9.23047 8.76204 9.11654 9.02637 8.88867C 9.29069 8.66081 9.42285 8.36458 9.42285 8C 9.42285 7.73112 9.32715 7.50781 9.13574 7.33008C 8.94434 7.15234 8.62988 7.06348 8.19238 7.06348C 7.75488 7.06348 7.40397 7.13411 7.13965 7.27539C 6.87988 7.41211 6.65658 7.62174 6.46973 7.9043L 4.93164 6.82422C 5.30534 6.31836 5.75651 5.94466 6.28516 5.70312C 6.81836 5.46159 7.50195 5.34082 8.33594 5.34082C 8.9694 5.34082 9.52083 5.44108 9.99023 5.6416C 10.4642 5.83756 10.8219 6.111 11.0635 6.46191C 11.305 6.81283 11.4258 7.21387 11.4258 7.66504C 11.4258 8.90007 10.7878 9.6748 9.51172 9.98926C 10.1361 10.0303 10.6396 10.2673 11.0225 10.7002C 11.4053 11.1286 11.5967 11.6755 11.5967 12.3408Z"/>
</defs>
</svg>
