<svg width="62" height="62" viewBox="0 0 62 62" version="1.1" xmlns="http://www.w3.org/2000/svg" xmlns:xlink="http://www.w3.org/1999/xlink">
<title>road-map</title>
<desc>Created using Figma</desc>
<g id="Canvas" transform="translate(-328 -1733)">
<g id="road-map">
<g id="Group">
<g id="Vector">
<use xlink:href="#path0_fill" transform="translate(328 1733)" fill="#85C250"/>
</g>
<g id="Vector">
<use xlink:href="#path1_fill" transform="translate(366.394 1733)" fill="#85C250"/>
</g>
</g>
<g id="Vector">
<use xlink:href="#path2_fill" transform="translate(348.666 1733)" fill="#C9D467"/>
</g>
<g id="Group">
<g id="Vector">
<use xlink:href="#path3_fill" transform="translate(332.407 1781.98)" fill="#174461"/>
</g>
<g id="Vector">
<use xlink:href="#path4_fill" transform="translate(332.407 1774.63)" fill="#174461"/>
</g>
<g id="Vector">
<use xlink:href="#path5_fill" transform="translate(332.407 1767.29)" fill="#174461"/>
</g>
<g id="Vector">
<use xlink:href="#path6_fill" transform="translate(333.877 1742.02)" fill="#174461"/>
</g>
</g>
<g id="Group">
<g id="Vector">
<use xlink:href="#path7_fill" transform="translate(353.073 1740.55)" fill="#FFFFFF"/>
</g>
<g id="Vector">
<use xlink:href="#path8_fill" transform="translate(353.073 1781.98)" fill="#FFFFFF"/>
</g>
<g id="Vector">
<use xlink:href="#path9_fill" transform="translate(353.073 1774.63)" fill="#FFFFFF"/>
</g>
<g id="Vector">
<use xlink:href="#path10_fill" transform="translate(353.073 1767.29)" fill="#FFFFFF"/>
</g>
<g id="Vector">
<use xlink:href="#path11_fill" transform="translate(353.073 1759.94)" fill="#FFFFFF"/>
</g>
</g>
<g id="Group">
<g id="Vector">
<use xlink:href="#path12_fill" transform="translate(373.74 1740.55)" fill="#174461"/>
</g>
<g id="Vector">
<use xlink:href="#path13_fill" transform="translate(373.74 1747.89)" fill="#174461"/>
</g>
<g id="Vector">
<use xlink:href="#path14_fill" transform="translate(373.74 1755.24)" fill="#174461"/>
</g>
<g id="Vector">
<use xlink:href="#path15_fill" transform="translate(375.21 1764.05)" fill="#174461"/>
</g>
</g>
</g>
</g>
<defs>
<path id="path0_fill" d="M 20.6657 5.8768L 25.0733 33.9383L 20.6657 62L 0 56.1232L 0 0L 20.6657 5.8768Z"/>
<path id="path1_fill" d="M 23.6055 5.8768L 23.6055 62L 2.93834 56.1232L -5.61714e-07 28.0617L 2.93834 0L 23.6055 5.8768Z"/>
<path id="path2_fill" d="M 20.6671 0L 20.6671 56.1232L -4.13895e-07 62L -4.13895e-07 5.8768L 20.6671 0Z"/>
<path id="path3_fill" d="M 10.3826 5.47359C 10.2496 5.47359 10.1143 5.45542 9.98005 5.41716L 1.06767 2.88279C 0.287221 2.66082 -0.165549 1.84816 0.0564158 1.06771C 0.27826 0.287262 1.09056 -0.165627 1.87149 0.0564592L 10.7839 2.59083C 11.5643 2.81279 12.0171 3.62546 11.7951 4.4059C 11.6113 5.05206 11.0225 5.47359 10.3826 5.47359Z"/>
<path id="path4_fill" d="M 10.3826 5.47367C 10.2496 5.47367 10.1143 5.45551 9.98005 5.41724L 1.06767 2.88287C 0.287221 2.66091 -0.165549 1.84825 0.0564158 1.0678C 0.27826 0.287347 1.09056 -0.165783 1.87149 0.0565448L 10.7839 2.59091C 11.5643 2.81288 12.0171 3.62554 11.7951 4.40599C 11.6113 5.05215 11.0225 5.47367 10.3826 5.47367Z"/>
<path id="path5_fill" d="M 10.3826 5.47354C 10.2496 5.47354 10.1143 5.45538 9.98005 5.41711L 1.06767 2.88274C 0.287221 2.66078 -0.165549 1.84812 0.0564158 1.06767C 0.27826 0.287219 1.09056 -0.165548 1.87149 0.0564169L 10.7839 2.59079C 11.5643 2.81275 12.0171 3.62541 11.7951 4.40586C 11.6113 5.05202 11.0225 5.47354 10.3826 5.47354Z"/>
<path id="path6_fill" d="M -2.14338e-07 -3.7694e-07L -2.14338e-07 19.3934L 8.91238 21.9278L 8.91238 2.53437L -2.14338e-07 -3.7694e-07Z"/>
<path id="path7_fill" d="M 1.46885 5.47366C 0.828752 5.47366 0.240115 5.05213 0.0564162 4.40597C -0.165549 3.6254 0.287221 2.81298 1.06767 2.5909L 9.98114 0.0564068C 10.7612 -0.165558 11.5741 0.287332 11.7962 1.06766C 12.0182 1.84823 11.5654 2.66065 10.785 2.88274L 1.87149 5.41723C 1.73708 5.45537 1.60194 5.47366 1.46885 5.47366Z"/>
<path id="path8_fill" d="M 1.46885 5.47367C 0.828752 5.47367 0.240115 5.05214 0.0564162 4.40598C -0.165549 3.62541 0.287221 2.81299 1.06767 2.59091L 9.98114 0.0564164C 10.7612 -0.165548 11.5741 0.287219 11.7962 1.06767C 12.0182 1.84824 11.5654 2.66066 10.785 2.88274L 1.87149 5.41724C 1.73708 5.45538 1.60194 5.47367 1.46885 5.47367Z"/>
<path id="path9_fill" d="M 1.46885 5.47367C 0.828752 5.47367 0.240115 5.05214 0.0564162 4.40598C -0.165549 3.62541 0.287221 2.81299 1.06767 2.59091L 9.98114 0.0564162C 10.7612 -0.165549 11.5741 0.287219 11.7962 1.06767C 12.0182 1.84824 11.5654 2.66066 10.785 2.88274L 1.87149 5.41724C 1.73708 5.4555 1.60194 5.47367 1.46885 5.47367Z"/>
<path id="path10_fill" d="M 1.46885 5.47361C 0.828752 5.47361 0.240115 5.05209 0.0564162 4.40593C -0.165549 3.62536 0.287221 2.81294 1.06767 2.59086L 9.98114 0.0563651C 10.7612 -0.165479 11.5741 0.287289 11.7962 1.06762C 12.0182 1.84819 11.5654 2.66073 10.785 2.88269L 1.87149 5.41718C 1.73708 5.45533 1.60194 5.47361 1.46885 5.47361Z"/>
<path id="path11_fill" d="M 1.46885 5.47362C 0.828752 5.47362 0.240115 5.0521 0.0564162 4.40594C -0.165549 3.62537 0.287221 2.81283 1.06767 2.59087L 9.98114 0.0563739C 10.7612 -0.16547 11.5741 0.287178 11.7962 1.06763C 12.0182 1.8482 11.5654 2.66062 10.785 2.8827L 1.87149 5.41719C 1.73708 5.45546 1.60194 5.47362 1.46885 5.47362Z"/>
<path id="path12_fill" d="M 10.3837 5.47374C 10.2507 5.47374 10.1154 5.45558 9.98114 5.41731L 1.06767 2.8827C 0.28722 2.66074 -0.165551 1.84808 0.0564141 1.06763C 0.278379 0.287177 1.09068 -0.165471 1.87149 0.0563729L 10.785 2.59099C 11.5654 2.81295 12.0182 3.62561 11.7962 4.40606C 11.6124 5.05222 11.0236 5.47374 10.3837 5.47374Z"/>
<path id="path13_fill" d="M 10.3837 5.4737C 10.2507 5.4737 10.1154 5.45554 9.98114 5.41727L 1.06767 2.88266C 0.28722 2.66069 -0.165551 1.84803 0.0564141 1.06758C 0.278379 0.287136 1.09068 -0.165392 1.87149 0.0563303L 10.785 2.59094C 11.5654 2.81291 12.0182 3.62557 11.7962 4.40602C 11.6124 5.05218 11.0236 5.4737 10.3837 5.4737Z"/>
<path id="path14_fill" d="M 10.3837 5.4737C 10.2507 5.4737 10.1154 5.45554 9.98114 5.41727L 1.06767 2.88266C 0.28722 2.66069 -0.165551 1.84803 0.0564141 1.06758C 0.278379 0.287134 1.09068 -0.165393 1.87149 0.0563295L 10.785 2.59094C 11.5654 2.81291 12.0182 3.62557 11.7962 4.40602C 11.6124 5.05217 11.0236 5.4737 10.3837 5.4737Z"/>
<path id="path15_fill" d="M -9.16481e-07 1.21212e-06L -9.16481e-07 19.3933L 8.91347 21.928L 8.91347 2.53461L -9.16481e-07 1.21212e-06Z"/>
</defs>
</svg>
