<svg width="20" height="20" viewBox="0 0 20 20" version="1.1" xmlns="http://www.w3.org/2000/svg" xmlns:xlink="http://www.w3.org/1999/xlink">
<title>search</title>
<desc>Created using Figma</desc>
<g id="Canvas" transform="translate(-1042 -1051)">
<g id="search">
<g id="Page 1">
<g id="feather icon">
<g id="search">
<g id="Oval">
<use xlink:href="#path0_stroke" transform="translate(1043 1052)" fill="#3A4047"/>
</g>
<g id="Shape">
<use xlink:href="#path1_stroke" transform="translate(1055.8 1064.8)" fill="#3A4047"/>
</g>
</g>
</g>
</g>
</g>
</g>
<defs>
<path id="path0_stroke" d="M 14 7.5C 14 11.0899 11.0899 14 7.5 14L 7.5 16C 12.1944 16 16 12.1944 16 7.5L 14 7.5ZM 7.5 14C 3.91015 14 1 11.0899 1 7.5L -1 7.5C -1 12.1944 2.80558 16 7.5 16L 7.5 14ZM 1 7.5C 1 3.91015 3.91015 1 7.5 1L 7.5 -1C 2.80558 -1 -1 2.80558 -1 7.5L 1 7.5ZM 7.5 1C 11.0899 1 14 3.91015 14 7.5L 16 7.5C 16 2.80558 12.1944 -1 7.5 -1L 7.5 1Z"/>
<path id="path1_stroke" d="M 4.49289 5.90711C 4.88342 6.29763 5.51658 6.29763 5.90711 5.90711C 6.29763 5.51658 6.29763 4.88342 5.90711 4.49289L 4.49289 5.90711ZM 0.707107 -0.707107C 0.316583 -1.09763 -0.316582 -1.09763 -0.707107 -0.707107C -1.09763 -0.316582 -1.09763 0.316583 -0.707107 0.707107L 0.707107 -0.707107ZM 5.90711 4.49289L 0.707107 -0.707107L -0.707107 0.707107L 4.49289 5.90711L 5.90711 4.49289Z"/>
</defs>
</svg>
