<svg width="48" height="48" viewBox="0 0 48 48" version="1.1" xmlns="http://www.w3.org/2000/svg" xmlns:xlink="http://www.w3.org/1999/xlink">
<title>shopping-cart</title>
<desc>Created using Figma</desc>
<g id="Canvas" transform="translate(-1000 492)">
<g id="shopping-cart">
<g id="Page 1">
<g id="feather icon">
<g id="shopping cart">
<g id="Oval">
<use xlink:href="#path0_stroke" transform="translate(1012 -454)" fill="#1AB0CE"/>
</g>
<g id="Oval">
<use xlink:href="#path0_stroke" transform="translate(1036 -454)" fill="#1AB0CE"/>
</g>
<g id="Shape">
<use xlink:href="#path1_stroke" transform="translate(1002 -490)" fill="#1AB0CE"/>
</g>
</g>
</g>
</g>
</g>
</g>
<defs>
<path id="path0_stroke" d="M 6 4C 6 5.10457 5.10457 6 4 6L 4 10C 7.31371 10 10 7.31371 10 4L 6 4ZM 4 6C 2.89543 6 2 5.10457 2 4L -2 4C -2 7.31371 0.686291 10 4 10L 4 6ZM 2 4C 2 2.89543 2.89543 2 4 2L 4 -2C 0.686291 -2 -2 0.686291 -2 4L 2 4ZM 4 2C 5.10457 2 6 2.89543 6 4L 10 4C 10 0.686291 7.31371 -2 4 -2L 4 2Z"/>
<path id="path1_stroke" d="M 9.34 8C 8.23543 8 7.34 8.89543 7.34 10C 7.34 11.1046 8.23543 12 9.34 12L 9.34 8ZM 44 10L 45.9611 10.3927C 46.0787 9.80508 45.9267 9.19568 45.5468 8.7322C 45.167 8.26872 44.5993 8 44 8L 44 10ZM 40.64 26.78L 38.6789 26.3873L 38.6783 26.3904L 40.64 26.78ZM 36.64 30L 36.6783 28.0004C 36.6655 28.0001 36.6528 28 36.64 28L 36.64 30ZM 15.5 30L 15.5 28C 15.4943 28 15.4887 28 15.483 28.0001L 15.5 30ZM 11.5 26.52L 13.483 26.2601L 13.4828 26.2584L 11.5 26.52ZM 8.46 3.48L 6.47697 3.74L 6.47719 3.74162L 8.46 3.48ZM 4.5 0L 4.50303 -2L 4.5 -2L 4.5 0ZM 0 -2C -1.10457 -2 -2 -1.10457 -2 0C -2 1.10457 -1.10457 2 0 2L 0 -2ZM 9.34 12L 44 12L 44 8L 9.34 8L 9.34 12ZM 42.0389 9.60732L 38.6789 26.3873L 42.6011 27.1727L 45.9611 10.3927L 42.0389 9.60732ZM 38.6783 26.3904C 38.4896 27.3406 37.6469 28.0189 36.6783 28.0004L 36.6017 31.9996C 39.5075 32.0553 42.0355 30.0203 42.6017 27.1696L 38.6783 26.3904ZM 36.64 28L 15.5 28L 15.5 32L 36.64 32L 36.64 28ZM 15.483 28.0001C 14.4725 28.0086 13.6144 27.2621 13.483 26.2601L 9.51696 26.7799C 9.91097 29.7859 12.4854 32.0256 15.517 31.9999L 15.483 28.0001ZM 13.4828 26.2584L 10.4428 3.21838L 6.47719 3.74162L 9.51719 26.7816L 13.4828 26.2584ZM 10.443 3.22C 10.0519 0.23679 7.51177 -1.99544 4.50303 -2L 4.49697 2C 5.49989 2.00152 6.34659 2.74559 6.47697 3.74L 10.443 3.22ZM 4.5 -2L 0 -2L 0 2L 4.5 2L 4.5 -2Z"/>
</defs>
</svg>
